<?xml version="1.0" encoding="utf-8"?>
<!-- Generator: Adobe Illustrator 19.1.0, SVG Export Plug-In . SVG Version: 6.00 Build 0)  -->
<svg version="1.1" id="Layer_1" xmlns="http://www.w3.org/2000/svg" xmlns:xlink="http://www.w3.org/1999/xlink" x="0px" y="0px"
	 viewBox="0 0 860.3 232.8" style="enable-background:new 0 0 860.3 232.8;" xml:space="preserve">
<style type="text/css">
	.st0{opacity:0.62;fill:none;stroke:#767769;stroke-miterlimit:10;}
	.st1{opacity:0.63;fill:none;stroke:#767769;stroke-miterlimit:10;}
	.st2{opacity:0.6;fill:none;stroke:#767769;stroke-miterlimit:10;}
	.st3{fill:none;stroke:#208BB5;stroke-miterlimit:10;}
	.st4{fill:none;stroke:#E3038C;stroke-miterlimit:10;}
</style>
<line class="st0" x1="80.9" y1="151.2" x2="768.9" y2="151.2"/>
<line class="st1" x1="81.4" y1="151.7" x2="81.4" y2="118.7"/>
<line class="st2" x1="769.4" y1="150.7" x2="769.4" y2="114.7"/>
<g>
	<path class="st3" d="M352,183c0.6,0.4,2.1,1,3.6,1c2.8,0,3.7-1.8,3.7-3.1c0-2.3-2.1-3.2-4.2-3.2h-1.2V176h1.2
		c1.6,0,3.6-0.8,3.6-2.7c0-1.3-0.8-2.5-2.8-2.5c-1.3,0-2.5,0.6-3.2,1.1l-0.6-1.6c0.8-0.6,2.5-1.2,4.2-1.2c3.2,0,4.6,1.9,4.6,3.9
		c0,1.7-1,3.1-3,3.8v0c2,0.4,3.6,1.9,3.6,4.2c0,2.6-2,4.9-5.9,4.9c-1.8,0-3.4-0.6-4.2-1.1L352,183z"/>
	<path class="st3" d="M372.2,185.5l-4.3-16.8h2.3l2,8.5c0.5,2.1,0.9,4.2,1.2,5.8h0.1c0.3-1.7,0.8-3.7,1.4-5.8l2.2-8.5h2.3l2,8.5
		c0.5,2,0.9,4,1.2,5.8h0.1c0.3-1.8,0.8-3.7,1.3-5.8l2.2-8.5h2.2l-4.8,16.8h-2.3l-2.1-8.8c-0.5-2.1-0.9-3.8-1.1-5.5h0
		c-0.3,1.7-0.7,3.3-1.3,5.5l-2.4,8.8H372.2z"/>
	<path class="st3" d="M391,179.9c0,3,1.9,4.2,4.1,4.2c1.6,0,2.5-0.3,3.3-0.6l0.4,1.6c-0.8,0.3-2.1,0.8-4,0.8c-3.7,0-5.9-2.4-5.9-6.1
		s2.1-6.5,5.7-6.5c3.9,0,5,3.5,5,5.7c0,0.5,0,0.8-0.1,1H391z M397.4,178.3c0-1.4-0.6-3.6-3-3.6c-2.2,0-3.2,2-3.4,3.6H397.4z"/>
	<path class="st3" d="M403.5,179.9c0,3,1.9,4.2,4.1,4.2c1.6,0,2.5-0.3,3.3-0.6l0.4,1.6c-0.8,0.3-2.1,0.8-4,0.8
		c-3.7,0-5.9-2.4-5.9-6.1s2.1-6.5,5.7-6.5c3.9,0,5,3.5,5,5.7c0,0.5,0,0.8-0.1,1H403.5z M409.9,178.3c0-1.4-0.6-3.6-3-3.6
		c-2.2,0-3.2,2-3.4,3.6H409.9z"/>
	<path class="st3" d="M417,179L417,179c0.4-0.4,0.8-0.9,1.1-1.4l3.5-4.2h2.6l-4.7,5l5.3,7.1h-2.7l-4.2-5.8L417,181v4.5h-2.2v-17.7
		h2.2V179z"/>
	<path class="st3" d="M426.2,183.3c0.6,0.4,1.8,0.9,2.9,0.9c1.6,0,2.3-0.8,2.3-1.8c0-1-0.6-1.6-2.2-2.2c-2.2-0.8-3.2-2-3.2-3.4
		c0-1.9,1.6-3.5,4.2-3.5c1.2,0,2.3,0.3,3,0.8l-0.6,1.6c-0.5-0.3-1.3-0.7-2.5-0.7c-1.3,0-2,0.8-2,1.6c0,1,0.7,1.5,2.3,2
		c2.1,0.8,3.2,1.8,3.2,3.6c0,2.1-1.6,3.6-4.5,3.6c-1.3,0-2.5-0.3-3.4-0.8L426.2,183.3z"/>
</g>
<g>
	<g>
		<path class="st3" d="M20.3,96.3c0,2,0.7,3,2.1,3c0.2,0,0.5,0,1-0.1c0.4-0.1,0.8-0.1,1-0.1c0.4,0,0.7,0.1,0.9,0.4
			c0.3,0.3,0.4,0.6,0.4,0.9c0,0.9-0.6,1.4-1.8,1.4c-0.1,0-0.1,0-0.2,0c-0.1,0-0.2,0-0.3,0l-2-0.3c-0.8-0.1-1.6-0.2-2.6-0.2
			c-1,0-1.9,0.1-2.7,0.2l-2,0.3c-0.1,0-0.2,0-0.3,0c-0.1,0-0.2,0-0.3,0c-1.2,0-1.8-0.5-1.8-1.4c0-0.9,0.4-1.3,1.3-1.3
			c0.2,0,0.5,0,1,0.1c0.4,0.1,0.8,0.1,1,0.1c1.4,0,2-1,2-3v-2.8v-3.6v-3.4v-6.6c0-1.9-1-2.9-3-2.9h-1.3c-1.9,0-2.9,0.9-2.9,2.8
			c0,0.7,0,1.1,0,1.4l0.2,1.5c0,0.2,0,0.6,0,1c0,1.7-0.5,2.6-1.6,2.6c-1,0-1.5-0.6-1.5-1.9c0-0.4,0-1,0.1-1.8
			c0.1-1.3,0.1-2.1,0.1-2.5c0-0.7,0-1.4-0.1-2.1C7,76.5,7,75.9,7,76.1c0-1.1,0.5-1.7,1.5-1.7c0.4,0,1.3,0,2.6,0.1
			c0.1,0,1.2,0.1,3.3,0.2h4.6c0.5,0,2,0,4.3-0.1c0.5,0,1.4,0,2.6-0.1c1.1-0.1,2-0.1,2.6-0.1c1.3,0,2,0.6,2,1.7v0.1
			c0,0.3,0,0.8-0.1,1.5c-0.1,0.7-0.1,1.5-0.2,2.4v0.4c0,0.4,0,1,0.1,1.9c0.1,1.1,0.2,1.8,0.2,2.1c0,1.1-0.5,1.7-1.6,1.7
			c-1,0-1.5-0.7-1.5-2c0-0.5,0-1.2,0.1-2.2c0.1-1,0.1-1.7,0.1-2.2c0-1.9-1.1-2.8-3.2-2.8h-1.1c-1,0-1.7,0.2-2.1,0.6
			c-0.4,0.4-0.7,1.1-0.7,2.1l-0.2,2.8V96.3z"/>
		<path class="st3" d="M51.1,89.7c0,1-0.1,1.7-0.2,1.9c-0.1,0.2-0.5,0.3-1.2,0.3H36.8c-0.4,0-0.6,0-0.7,0.1
			c-0.1,0.1-0.2,0.3-0.2,0.5c0,2,0.6,3.7,1.8,5.1c1.2,1.4,2.7,2,4.5,2c1.2,0,2.3-0.3,3.3-1c1-0.6,1.6-1.5,1.9-2.5l0.4-1.2
			c0.2-0.6,0.6-1,1.3-1c1,0,1.5,0.5,1.5,1.5c0,1.8-0.9,3.3-2.7,4.7c-1.8,1.4-3.8,2-6.1,2c-2.8,0-5.1-1-6.8-2.9
			c-1.7-1.9-2.5-4.5-2.5-7.7c0-3.3,0.9-6,2.7-8c1.8-2.1,4.1-3.1,7-3.1c2.5,0,4.6,0.9,6.3,2.6C50.2,84.9,51.1,87.1,51.1,89.7z
			 M36.3,88.6c0,0.4,0.3,0.6,0.9,0.6h9.7c0.6,0,0.9-0.2,0.9-0.6c0-1.4-0.5-2.7-1.6-3.7c-1.1-1.1-2.4-1.6-3.8-1.6
			c-1.5,0-2.9,0.5-4.1,1.6C37,86.1,36.3,87.3,36.3,88.6z"/>
		<path class="st3" d="M60.4,84.7v12.6c0,1.4,0.4,2.1,1.1,2.1c0.2,0,0.5-0.1,1-0.2c0.3-0.1,0.5-0.1,0.7-0.1c0.9,0,1.4,0.5,1.4,1.4
			c0,0.9-0.6,1.3-1.7,1.3c-0.4,0-1.1-0.1-2.1-0.2c-0.9-0.1-1.7-0.2-2.2-0.2c-0.4,0-1.1,0.1-1.9,0.2c-0.9,0.1-1.5,0.2-1.9,0.2h-0.2
			c-1.1,0-1.7-0.5-1.7-1.5c0-0.8,0.5-1.3,1.4-1.3c0.1,0,0.1,0,0.3,0c0.2,0,0.3,0.1,0.4,0.1c0.7,0.2,1.1,0.2,1.2,0.2
			c0.5,0,0.8-0.2,0.9-0.6c0.1-0.4,0.2-1.5,0.2-3.3l0-2.8v-6.3V79c0-0.8-0.1-1.4-0.1-1.6c-0.2-0.6-0.6-0.9-1.1-0.9
			c-0.1,0-0.4,0.1-1.1,0.2c-0.3,0.1-0.5,0.1-0.7,0.1c-0.9,0-1.4-0.4-1.4-1.3c0-0.9,0.5-1.3,1.6-1.3c0.3,0,0.6,0,0.8,0l1,0.1
			c0.4,0.1,0.8,0.1,1.1,0.1c0.3,0,0.7,0,1.2-0.1c0.5-0.1,0.9-0.1,1.2-0.1c0.6,0,0.9,0.4,0.9,1.2c0,0.3,0,0.5,0,0.6
			C60.5,77.9,60.4,80.9,60.4,84.7z"/>
		<path class="st3" d="M73,84.7v12.6c0,1.4,0.4,2.1,1.1,2.1c0.2,0,0.5-0.1,1-0.2c0.3-0.1,0.5-0.1,0.7-0.1c0.9,0,1.4,0.5,1.4,1.4
			c0,0.9-0.6,1.3-1.7,1.3c-0.4,0-1.1-0.1-2.1-0.2c-0.9-0.1-1.7-0.2-2.2-0.2c-0.4,0-1.1,0.1-1.9,0.2c-0.9,0.1-1.5,0.2-1.9,0.2h-0.2
			c-1.1,0-1.7-0.5-1.7-1.5c0-0.8,0.5-1.3,1.4-1.3c0.1,0,0.1,0,0.3,0c0.2,0,0.3,0.1,0.4,0.1c0.7,0.2,1.1,0.2,1.2,0.2
			c0.5,0,0.8-0.2,0.9-0.6c0.1-0.4,0.2-1.5,0.2-3.3l0-2.8v-6.3V79c0-0.8-0.1-1.4-0.1-1.6c-0.2-0.6-0.6-0.9-1.1-0.9
			c-0.1,0-0.4,0.1-1.1,0.2c-0.3,0.1-0.5,0.1-0.7,0.1c-0.9,0-1.4-0.4-1.4-1.3c0-0.9,0.5-1.3,1.6-1.3c0.3,0,0.6,0,0.8,0l1,0.1
			c0.4,0.1,0.8,0.1,1.1,0.1c0.3,0,0.7,0,1.2-0.1c0.5-0.1,0.9-0.1,1.2-0.1c0.6,0,0.9,0.4,0.9,1.2c0,0.3,0,0.5,0,0.6
			C73.1,77.9,73,80.9,73,84.7z"/>
		<path class="st3" d="M85.7,89.8v5.3c0,1.4,0,2.1,0,2.4c0.1,1.2,0.5,1.8,1.1,1.8c0.1,0,0.5-0.1,1-0.2c0.1-0.1,0.3-0.1,0.6-0.1
			c1,0,1.5,0.4,1.5,1.3c0,0.4-0.2,0.7-0.5,1c-0.3,0.3-0.8,0.4-1.3,0.4c-0.4,0-1.1-0.1-2-0.2c-0.9-0.1-1.5-0.2-2-0.2
			c-0.7,0-1.5,0.1-2.4,0.2c-1.1,0.1-1.8,0.2-2.1,0.2c-1.1,0-1.6-0.5-1.6-1.4c0-0.9,0.5-1.3,1.4-1.3c0.2,0,0.5,0,1,0.1
			c0.4,0.1,0.7,0.1,1,0.1c0.7,0,1-0.9,1.2-2.6c0-0.1,0-1.3,0-3.5v-3.3c0-2.2,0-3.4,0-3.5c-0.1-1.7-0.5-2.6-1.2-2.6
			c-0.2,0-0.5,0-0.9,0.1c-0.4,0.1-0.7,0.1-0.9,0.1c-1,0-1.5-0.4-1.5-1.3c0-0.9,0.6-1.4,1.8-1.4c0.5,0,0.9,0,1.1,0
			c0.9,0.1,1.4,0.2,1.7,0.2c0.2,0,0.5,0,1-0.1s0.8-0.1,1-0.1c0.8,0,1.2,0.5,1.2,1.6c0,0.1,0,0.3,0,0.5c0,0.2,0,0.4,0,0.5
			c0,0.2,0,1.1-0.1,2.5C85.7,87.6,85.7,88.7,85.7,89.8z M83.6,79.2c-0.6,0-1.2-0.2-1.6-0.7c-0.4-0.4-0.7-1-0.7-1.6s0.2-1.1,0.7-1.6
			c0.4-0.4,1-0.6,1.6-0.6c0.6,0,1.2,0.2,1.6,0.6c0.4,0.4,0.7,1,0.7,1.6s-0.2,1.2-0.7,1.6C84.7,79,84.2,79.2,83.6,79.2z"/>
		<path class="st3" d="M97.9,82.6v1.2c1.6-2.1,3.8-3.1,6.5-3.1c1.5,0,2.8,0.4,4.1,1.1c1.3,0.7,2.2,1.7,2.6,2.8
			c0.4,0.9,0.6,2.1,0.6,3.6v7.7c0,1.2,0,1.9,0,2.1c0.1,0.9,0.5,1.4,1.1,1.4c0.2,0,0.6,0,1-0.1c0.4-0.1,0.7-0.1,0.8-0.1
			c0.4,0,0.7,0.1,0.9,0.4s0.4,0.5,0.4,0.9c0,0.4-0.2,0.7-0.5,1c-0.3,0.3-0.7,0.4-1.2,0.4c-0.4,0-1-0.1-1.9-0.2
			c-0.9-0.1-1.7-0.2-2.4-0.2c-0.7,0-1.3,0-1.7,0.1c-1.4,0.2-2.1,0.2-2.1,0.2c-1.1,0-1.6-0.5-1.6-1.4c0-0.8,0.5-1.3,1.4-1.3
			c0.2,0,0.5,0,0.7,0.1c0.5,0.1,0.9,0.2,1,0.2c0.7,0,1-0.7,1.1-2.2V95v-2.5v-3.1c0-1.4-0.1-2.4-0.2-3c-0.2-1-0.8-1.8-1.6-2.4
			c-0.9-0.6-1.9-0.9-3-0.9c-2.2,0-3.7,0.8-4.6,2.3c-0.6,1.1-1,2.9-1,5.4v5.4c0,1.2,0.1,2,0.2,2.4c0.2,0.4,0.5,0.6,0.9,0.6
			c0.2,0,0.5,0,0.9-0.1c0.4-0.1,0.7-0.1,0.9-0.1c0.8,0,1.3,0.5,1.3,1.4c0,0.9-0.5,1.3-1.6,1.3c-0.2,0-0.9-0.1-2.1-0.2
			c-0.6-0.1-1.3-0.1-2-0.1c-0.6,0-1.3,0.1-2.3,0.2c-1.2,0.1-1.9,0.2-2,0.2c-1.1,0-1.7-0.5-1.7-1.4c0-0.9,0.4-1.3,1.3-1.3
			c0.1,0,0.4,0,0.8,0.1c0.4,0.1,0.7,0.1,1.1,0.1c0.8,0,1.3-0.8,1.3-2.4v-4.5v-4.9v-1.4c-0.1-0.9-0.2-1.5-0.4-1.9
			c-0.2-0.3-0.5-0.5-0.9-0.5c-0.2,0-0.5,0-0.8,0.1c-0.4,0.1-0.7,0.1-0.8,0.1c-1,0-1.5-0.4-1.5-1.3c0-0.9,0.6-1.3,1.8-1.3
			c0.2,0,0.3,0,0.4,0l1.5,0.2c0.4,0,0.8,0,1.1-0.1c0.7-0.1,1.1-0.1,1.1-0.1C97.5,81.3,97.9,81.7,97.9,82.6z"/>
		<path class="st3" d="M127.1,80.6c0.7,0,1.5,0.1,2.4,0.3c0.1-2.6,1.7-4,4.6-4c1.2,0,2.3,0.3,3.1,1c0.8,0.6,1.3,1.5,1.3,2.5
			c0,0.6-0.2,1.2-0.6,1.7c-0.4,0.5-0.9,0.7-1.5,0.7c-0.4,0-0.8-0.1-1.1-0.4c-0.3-0.3-0.5-0.6-0.5-1.1c0-0.4,0.3-0.9,0.9-1.3
			c-0.4-0.5-1-0.8-1.7-0.8c-1.4,0-2.2,0.9-2.2,2.7c2.1,1.4,3.1,3.2,3.1,5.6c0,1.9-0.7,3.4-2.1,4.7c-1.4,1.2-3.2,1.9-5.3,1.9
			c-1.5,0-3-0.4-4.6-1.1c-0.4-0.2-0.8-0.3-1.1-0.3c-0.4,0-0.7,0.2-1,0.5c-0.3,0.3-0.4,0.7-0.4,1.2c0,1.4,1.4,2.1,4.3,2.1h0.2
			c0.2,0,0.5,0,0.7,0c0.3,0,0.4,0,0.5,0c2.6,0,4.7,0.2,6.3,0.7c1.5,0.5,2.7,1.2,3.5,2.1c0.9,1,1.3,2.1,1.3,3.3c0,2-0.9,3.5-2.7,4.7
			c-1.8,1.1-4.3,1.7-7.4,1.7c-3.1,0-5.5-0.5-7.3-1.6c-1.8-1.1-2.7-2.6-2.7-4.5c0-2.2,1.2-3.7,3.7-4.7c-2.2-0.9-3.3-2.2-3.3-3.9
			c0-1.9,1.1-3.2,3.3-3.9c-0.7-0.9-1.1-2.1-1.1-3.3c0-1.8,0.7-3.4,2.1-4.6C123.2,81.3,125,80.6,127.1,80.6z M127.3,99.1
			c-2.2,0-3.9,0.3-5.1,1c-1.2,0.6-1.9,1.5-1.9,2.6c0,1.1,0.6,2,1.8,2.6c1.2,0.6,2.9,1,4.9,1c2.2,0,3.9-0.3,5.1-1
			c1.3-0.6,1.9-1.5,1.9-2.6c0-1.1-0.6-2-1.8-2.7C131.1,99.4,129.4,99.1,127.3,99.1z M127.2,83.3c-1.2,0-2.2,0.4-3,1.1
			c-0.8,0.7-1.3,1.6-1.4,2.6v0.2c0,1.2,0.4,2.1,1.2,2.9c0.8,0.7,1.9,1.1,3.2,1.1c1.4,0,2.5-0.4,3.3-1.1c0.9-0.7,1.3-1.7,1.3-2.8
			c0-1.2-0.4-2.1-1.3-2.9C129.6,83.7,128.5,83.3,127.2,83.3z"/>
	</g>
	<g>
		<path class="st3" d="M41.8,64.4c0,2,0.7,3,2.1,3c0.2,0,0.5,0,1-0.1c0.4-0.1,0.8-0.1,1-0.1c0.4,0,0.7,0.1,0.9,0.4
			c0.3,0.3,0.4,0.6,0.4,0.9c0,0.9-0.6,1.4-1.8,1.4c-0.1,0-0.1,0-0.2,0c-0.1,0-0.2,0-0.3,0l-2-0.3c-0.8-0.1-1.6-0.2-2.6-0.2
			c-1,0-1.9,0.1-2.7,0.2l-2,0.3c-0.1,0-0.2,0-0.3,0c-0.1,0-0.2,0-0.3,0c-1.2,0-1.8-0.5-1.8-1.4c0-0.9,0.4-1.3,1.3-1.3
			c0.2,0,0.5,0,1,0.1c0.4,0.1,0.8,0.1,1,0.1c1.4,0,2-1,2-3v-2.8V58v-3.4v-6.6c0-1.9-1-2.9-3-2.9h-1.3c-1.9,0-2.9,0.9-2.9,2.8
			c0,0.7,0,1.1,0,1.4l0.2,1.5c0,0.2,0,0.6,0,1c0,1.7-0.5,2.6-1.6,2.6c-1,0-1.5-0.6-1.5-1.9c0-0.4,0-1,0.1-1.8
			c0.1-1.3,0.1-2.1,0.1-2.5c0-0.7,0-1.4-0.1-2.1c-0.1-1.4-0.1-2-0.1-1.8c0-1.1,0.5-1.7,1.5-1.7c0.4,0,1.3,0,2.6,0.1
			c0.1,0,1.2,0.1,3.3,0.2h4.6c0.5,0,2,0,4.3-0.1c0.5,0,1.4,0,2.6-0.1c1.1-0.1,2-0.1,2.6-0.1c1.3,0,2,0.6,2,1.7v0.1
			c0,0.3,0,0.8-0.1,1.5c-0.1,0.7-0.1,1.5-0.2,2.4v0.4c0,0.4,0,1,0.1,1.9c0.1,1.1,0.2,1.8,0.2,2.1c0,1.1-0.5,1.7-1.6,1.7
			c-1,0-1.5-0.7-1.5-2c0-0.5,0-1.2,0.1-2.2c0.1-1,0.1-1.7,0.1-2.2c0-1.9-1.1-2.8-3.2-2.8h-1.1c-1,0-1.7,0.2-2.1,0.6
			c-0.4,0.4-0.7,1.1-0.7,2.1l-0.2,2.8V64.4z"/>
		<path class="st3" d="M61.1,43.6l-0.2,7.9c1.1-1,2.1-1.7,3-2.1c0.9-0.4,2-0.6,3.2-0.6c2.3,0,4.2,0.7,5.6,2c1.4,1.3,2.1,3.1,2.1,5.2
			v6.8c0,1.6,0,2.5,0,2.6c0.1,1.4,0.5,2,1.1,2c0.2,0,0.5-0.1,0.9-0.2c0.2,0,0.4-0.1,0.6-0.1c1,0,1.5,0.5,1.5,1.4
			c0,0.9-0.6,1.4-1.9,1.4c-0.4,0-0.9,0-1.5-0.1c-1.1-0.1-2.1-0.2-2.8-0.2c-0.7,0-1.2,0-1.6,0.1c-1.1,0.2-1.8,0.2-2.1,0.2
			c-0.5,0-0.9-0.1-1.2-0.4c-0.3-0.3-0.5-0.6-0.5-1.1c0-0.4,0.1-0.6,0.4-0.9c0.3-0.2,0.6-0.4,1-0.4c0.3,0,0.6,0.1,1.1,0.2
			c0.2,0.1,0.5,0.1,0.7,0.1c0.8,0,1.2-0.9,1.3-2.6c0-0.3,0-1,0.1-1.9v-1.7V59c0-2.8-0.3-4.6-0.8-5.6c-0.8-1.4-2.2-2.1-4.2-2.1
			c-2.1,0-3.7,0.7-4.7,2.2c-0.7,1-1,2.6-1.1,4.8v2.9c0,0.2-0.1,0.4-0.2,0.8c0,0.4,0,0.6,0,0.8c0,1.5,0,2.4,0,2.7
			c0.1,1.3,0.5,2,1.2,2c0.2,0,0.5-0.1,0.9-0.2c0.4-0.1,0.7-0.2,0.9-0.2c0.9,0,1.3,0.4,1.3,1.3c0,1-0.6,1.5-1.8,1.5
			c-0.4,0-1,0-1.7-0.1c-1-0.1-1.9-0.2-2.7-0.2c-0.5,0-1.1,0-1.9,0.1c-1.1,0.1-1.8,0.2-2.1,0.2c-1.1,0-1.7-0.5-1.7-1.5
			c0-0.8,0.5-1.3,1.6-1.3c0.4,0,0.6,0,0.8,0.1c0.5,0.1,0.8,0.2,1,0.2c0.4,0,0.7-0.4,0.9-1.2c0.2-0.8,0.2-2.5,0.3-5v-7.3
			c0-4.1-0.1-6.6-0.2-7.7c-0.2-1.1-0.5-1.6-1.1-1.6c-0.2,0-0.5,0-0.9,0.1c-0.4,0.1-0.7,0.1-0.9,0.1c-0.9,0-1.4-0.4-1.4-1.3
			c0-0.4,0.2-0.7,0.5-1c0.3-0.3,0.7-0.4,1.2-0.4c0.1,0,0.6,0,1.4,0.1c0.5,0.1,1.1,0.1,1.7,0.1c0.2,0,0.6,0,1-0.1
			c0.4-0.1,0.7-0.1,0.9-0.1C60.8,42.2,61.1,42.6,61.1,43.6L61.1,43.6z"/>
		<path class="st3" d="M99,57.8c0,1-0.1,1.7-0.2,1.9c-0.1,0.2-0.5,0.3-1.2,0.3H84.7c-0.4,0-0.6,0-0.7,0.1c-0.1,0.1-0.2,0.3-0.2,0.5
			c0,2,0.6,3.7,1.8,5.1c1.2,1.4,2.7,2,4.5,2c1.2,0,2.3-0.3,3.3-1c1-0.6,1.6-1.5,1.9-2.5l0.4-1.2c0.2-0.6,0.6-1,1.3-1
			c1,0,1.5,0.5,1.5,1.5c0,1.8-0.9,3.3-2.7,4.7c-1.8,1.4-3.8,2-6.1,2c-2.8,0-5.1-1-6.8-2.9c-1.7-1.9-2.5-4.5-2.5-7.7
			c0-3.3,0.9-6,2.7-8c1.8-2.1,4.1-3.1,7-3.1c2.5,0,4.6,0.9,6.3,2.6C98.1,53,99,55.2,99,57.8z M84.3,56.8c0,0.4,0.3,0.6,0.9,0.6h9.7
			c0.6,0,0.9-0.2,0.9-0.6c0-1.4-0.5-2.7-1.6-3.7c-1.1-1.1-2.4-1.6-3.8-1.6c-1.5,0-2.9,0.5-4.1,1.6C84.9,54.2,84.3,55.4,84.3,56.8z"
			/>
	</g>
</g>
<g>
	<g>
		<path class="st3" d="M716,80.3c2.4,0,4.4,0.8,6,2.5v-0.6c0-1,0.4-1.5,1.2-1.5c0.8,0,1.3,0.6,1.3,1.7v0.2c0,0.1,0,0.4-0.1,1.2
			c-0.1,0.7-0.1,1.6-0.1,2.7c0,0.1,0,0.6,0.1,1.3l0.1,1.6c0,0.1,0,0.3,0,0.6c0,1.3-0.5,1.9-1.4,1.9c-1,0-1.5-0.5-1.5-1.6V90l0.1-1.1
			c0-0.4,0-0.7,0-0.9c0-1.6-0.5-2.8-1.5-3.7c-1-0.9-2.4-1.3-4.2-1.3c-1.6,0-2.9,0.4-3.9,1.3c-1,0.8-1.4,2-1.4,3.4
			c0,1.7,0.7,2.9,2.1,3.7c0.8,0.4,2.2,0.8,4.2,1.1c3,0.5,5,1.2,6.1,2.1c1.6,1.3,2.5,3.1,2.5,5.5c0,2.5-0.8,4.5-2.5,6.1
			c-1.7,1.6-3.9,2.3-6.5,2.3c-2.8,0-5.2-0.9-7.1-2.8c0,0.1,0,0.2,0,0.4c0,0.1,0,0.2,0,0.2c0.1,0.4,0.1,0.7,0.1,0.8
			c0,1-0.5,1.4-1.4,1.4c-1,0-1.5-0.6-1.5-1.7c0-0.1,0-0.2,0.1-0.3l0.2-2.1c0.1-1,0.1-1.7,0.1-2c0-0.5-0.1-1.3-0.2-2.4
			c-0.1-1.1-0.2-1.8-0.2-2.4c0-1.2,0.5-1.8,1.4-1.8c1,0,1.5,0.6,1.5,1.8v0.7c0,0.2,0,0.5,0,0.9c0,2,0.6,3.6,1.8,4.7
			c1.2,1.2,2.8,1.7,4.9,1.7c1.9,0,3.4-0.5,4.5-1.4c1.1-0.9,1.7-2.2,1.7-3.9c0-2.5-1.5-4-4.5-4.6l-2.1-0.4c-2.1-0.4-3.8-0.9-4.9-1.4
			c-1.1-0.5-1.9-1.3-2.6-2.4c-0.6-1.1-1-2.3-1-3.6c0-2.3,0.8-4.2,2.4-5.7C711.4,81,713.4,80.3,716,80.3z"/>
		<path class="st3" d="M744.4,106.6v-1.2c-1.3,1.9-3.3,2.9-5.9,2.9c-2.9,0-5-1-6.1-2.9c-0.5-0.8-0.8-1.8-0.8-3c0-0.6,0-1.7,0-3.5
			v-3.3c0-3.6-0.4-5.4-1.1-5.4c-0.2,0-0.4,0-0.7,0.1c-0.3,0-0.6,0.1-0.8,0.1c-0.9,0-1.3-0.4-1.3-1.3c0-0.8,0.5-1.2,1.6-1.2
			c0.2,0,0.6,0,1.1,0.1c0.5,0.1,0.9,0.1,1.1,0.1c0.2,0,0.6,0,1.2-0.1c0.4-0.1,0.6-0.1,0.6-0.1c0.8,0,1.2,0.5,1.2,1.5v0.8v2.6
			l-0.1,2.9v2.6c0,2.3,0.2,3.9,0.5,4.9c0.6,1.7,1.9,2.5,4.1,2.5c1.1,0,2-0.3,2.8-0.8c0.8-0.5,1.4-1.2,1.7-2c0.4-1,0.6-3,0.6-5.9
			v-2.2c0-1.6,0-2.4,0-2.6c-0.1-1.3-0.4-1.9-1-1.9c-0.3,0-0.5,0-0.7,0H742c-0.9,0-1.3-0.4-1.3-1.2c0-0.9,0.5-1.3,1.5-1.3
			c0.2,0,0.6,0,1,0.1c0.5,0.1,0.8,0.1,1,0.1c0.2,0,0.5,0,0.9-0.1c0.4-0.1,0.7-0.1,0.9-0.1c0.7,0,1.1,0.4,1.1,1.3
			c0,0.4,0,0.7-0.1,0.9c-0.1,1-0.2,2.5-0.2,4.4v6.1c0,1.6,0,2.5,0,2.7c0.1,1.4,0.5,2.1,1,2.1c0.2,0,0.4,0,0.7-0.1
			c0.3-0.1,0.6-0.1,0.7-0.1c0.8,0,1.3,0.4,1.3,1.3c0,0.9-0.5,1.3-1.6,1.3c-0.2,0-0.5,0-1-0.1c-0.6-0.1-1-0.1-1.2-0.1
			c-0.1,0-0.3,0-0.8,0.1c-0.3,0.1-0.6,0.1-0.8,0.1C744.8,107.7,744.4,107.3,744.4,106.6z"/>
		<path class="st3" d="M758,88.9V90c1.3-1.9,3-2.9,5.2-2.9c1.7,0,3.2,0.5,4.3,1.6c1.1,1,1.6,2.4,1.6,4c0,1.2-0.3,2.1-0.8,2.8
			c-0.5,0.7-1.3,1.1-2.2,1.1c-0.6,0-1.1-0.2-1.5-0.6c-0.4-0.4-0.6-0.8-0.6-1.3c0-0.4,0.2-0.8,0.4-1.1c0.3-0.3,0.6-0.5,1-0.5
			c0.1,0,0.2,0,0.5,0.1c0.1-0.3,0.2-0.6,0.2-0.9c0-0.8-0.3-1.4-1-1.9c-0.6-0.5-1.4-0.8-2.4-0.8c-1.9,0-3.2,0.9-3.9,2.8
			c-0.4,1.1-0.6,2.8-0.6,5.1v2.6c0,1.8,0,2.8,0,3c0.1,1.5,0.5,2.3,1.2,2.3c0.3,0,0.7,0,1-0.1c0.3-0.1,0.5-0.1,0.7-0.1
			c0.8,0,1.2,0.4,1.2,1.2c0,0.9-0.5,1.4-1.5,1.4h-0.1c-0.4,0-0.9,0-1.7-0.1c-0.8-0.1-1.3-0.1-1.7-0.1c-1,0-1.8,0-2.4,0.1l-2.1,0.2
			c-1,0-1.5-0.5-1.5-1.4c0-0.8,0.5-1.2,1.4-1.2c0.3,0,0.4,0,0.6,0l0.6,0.1c0.3,0.1,0.4,0.1,0.5,0.1c0.6,0,1-0.6,1-1.8v-2l-0.1-9
			c-0.1-1.6-0.4-2.3-1.1-2.3c-0.2,0-0.5,0-0.8,0.1c-0.4,0.1-0.6,0.1-0.8,0.1c-0.8,0-1.2-0.4-1.2-1.3c0-0.9,0.5-1.4,1.6-1.4
			c0.2,0,0.6,0,1.1,0.1c0.5,0.1,0.9,0.1,1.1,0.1c0.2,0,0.5,0,1-0.1c0.2-0.1,0.4-0.1,0.7-0.1C757.6,87.8,758,88.1,758,88.9z"/>
		<path class="st3" d="M779,87.1c0.6,0,1.4,0.1,2.2,0.3c0.1-2.6,1.5-3.9,4.3-3.9c1.1,0,2.1,0.3,2.9,0.9c0.8,0.6,1.2,1.4,1.2,2.4
			c0,0.6-0.2,1.2-0.6,1.6c-0.4,0.4-0.8,0.7-1.4,0.7c-0.4,0-0.7-0.1-1-0.4c-0.3-0.3-0.4-0.6-0.4-1c0-0.4,0.3-0.9,0.8-1.3
			c-0.4-0.5-0.9-0.8-1.5-0.8c-1.3,0-2,0.9-2,2.6c1.9,1.3,2.8,3.2,2.8,5.4c0,1.8-0.7,3.3-2,4.5c-1.3,1.2-2.9,1.8-4.9,1.8
			c-1.4,0-2.8-0.3-4.3-1c-0.4-0.2-0.7-0.3-1-0.3c-0.4,0-0.7,0.2-0.9,0.5c-0.3,0.3-0.4,0.7-0.4,1.2c0,1.4,1.3,2.1,3.9,2.1h0.2
			c0.2,0,0.4,0,0.7,0c0.2,0,0.4,0,0.5,0c2.4,0,4.3,0.2,5.8,0.7c1.4,0.4,2.5,1.1,3.3,2.1c0.8,0.9,1.2,2,1.2,3.2
			c0,1.9-0.8,3.4-2.5,4.6c-1.7,1.1-4,1.7-6.8,1.7c-2.9,0-5.1-0.5-6.8-1.6c-1.6-1.1-2.5-2.5-2.5-4.4c0-2.1,1.1-3.7,3.4-4.5
			c-2-0.8-3.1-2.1-3.1-3.8c0-1.8,1-3.1,3.1-3.8c-0.7-0.9-1-2-1-3.2c0-1.8,0.7-3.3,2-4.5C775.4,87.7,777,87.1,779,87.1z M779.1,105.1
			c-2,0-3.6,0.3-4.7,0.9c-1.1,0.6-1.7,1.5-1.7,2.6c0,1.1,0.6,1.9,1.7,2.6c1.1,0.6,2.6,0.9,4.5,0.9c2,0,3.6-0.3,4.7-0.9
			c1.2-0.6,1.7-1.5,1.7-2.5c0-1.1-0.5-2-1.6-2.6C782.6,105.4,781.1,105.1,779.1,105.1z M779.1,89.7c-1.1,0-2,0.3-2.8,1
			c-0.8,0.7-1.2,1.5-1.3,2.6v0.2c0,1.2,0.4,2.1,1.1,2.8c0.7,0.7,1.7,1.1,2.9,1.1c1.2,0,2.3-0.4,3.1-1.1c0.8-0.7,1.2-1.6,1.2-2.7
			c0-1.1-0.4-2.1-1.2-2.8C781.3,90.1,780.3,89.7,779.1,89.7z"/>
		<path class="st3" d="M806.9,95.9c0,1-0.1,1.6-0.2,1.8c-0.1,0.2-0.5,0.3-1.1,0.3h-11.9c-0.3,0-0.5,0-0.6,0.1
			c-0.1,0.1-0.2,0.2-0.2,0.5c0,2,0.6,3.6,1.7,4.9c1.1,1.3,2.5,2,4.2,2c1.1,0,2.1-0.3,3-0.9c0.9-0.6,1.5-1.4,1.8-2.4l0.3-1.1
			c0.2-0.6,0.6-0.9,1.2-0.9c0.9,0,1.4,0.5,1.4,1.5c0,1.7-0.8,3.2-2.5,4.6c-1.6,1.3-3.5,2-5.6,2c-2.6,0-4.7-0.9-6.3-2.8
			c-1.5-1.9-2.3-4.4-2.3-7.5c0-3.2,0.8-5.8,2.5-7.8c1.6-2,3.8-3,6.4-3c2.3,0,4.3,0.8,5.8,2.5C806.1,91.3,806.9,93.4,806.9,95.9z
			 M793.3,94.9c0,0.4,0.3,0.6,0.8,0.6h9c0.5,0,0.8-0.2,0.8-0.6c0-1.4-0.5-2.6-1.5-3.6c-1-1-2.2-1.5-3.5-1.5c-1.4,0-2.7,0.5-3.8,1.6
			C793.8,92.4,793.3,93.6,793.3,94.9z"/>
		<path class="st3" d="M815.3,88.9V90c1.3-1.9,3-2.9,5.2-2.9c1.7,0,3.2,0.5,4.3,1.6c1.1,1,1.6,2.4,1.6,4c0,1.2-0.3,2.1-0.8,2.8
			c-0.5,0.7-1.3,1.1-2.2,1.1c-0.6,0-1.1-0.2-1.5-0.6c-0.4-0.4-0.6-0.8-0.6-1.3c0-0.4,0.1-0.8,0.4-1.1c0.3-0.3,0.6-0.5,1-0.5
			c0.1,0,0.2,0,0.5,0.1c0.1-0.3,0.2-0.6,0.2-0.9c0-0.8-0.3-1.4-1-1.9c-0.6-0.5-1.4-0.8-2.4-0.8c-1.9,0-3.2,0.9-3.9,2.8
			c-0.4,1.1-0.6,2.8-0.6,5.1v2.6c0,1.8,0,2.8,0,3c0.1,1.5,0.5,2.3,1.2,2.3c0.3,0,0.7,0,1-0.1c0.3-0.1,0.5-0.1,0.7-0.1
			c0.8,0,1.2,0.4,1.2,1.2c0,0.9-0.5,1.4-1.5,1.4h-0.1c-0.4,0-0.9,0-1.7-0.1c-0.8-0.1-1.3-0.1-1.7-0.1c-1,0-1.8,0-2.4,0.1l-2.1,0.2
			c-1,0-1.5-0.5-1.5-1.4c0-0.8,0.5-1.2,1.4-1.2c0.3,0,0.4,0,0.6,0l0.6,0.1c0.3,0.1,0.4,0.1,0.5,0.1c0.6,0,1-0.6,1-1.8v-2l-0.1-9
			c-0.1-1.6-0.4-2.3-1.1-2.3c-0.2,0-0.5,0-0.8,0.1c-0.3,0.1-0.6,0.1-0.8,0.1c-0.8,0-1.2-0.4-1.2-1.3c0-0.9,0.5-1.4,1.6-1.4
			c0.2,0,0.6,0,1.1,0.1c0.5,0.1,0.9,0.1,1.1,0.1c0.2,0,0.5,0,1-0.1c0.2-0.1,0.4-0.1,0.7-0.1C815,87.8,815.3,88.1,815.3,88.9z"/>
		<path class="st3" d="M834.9,91.6l4.3,13.4l4.6-13.2c0.1-0.4,0.2-0.7,0.2-0.9c0-0.4-0.3-0.7-0.9-0.7c-0.3,0-0.5,0-0.7,0.1
			c-0.4,0.1-0.7,0.1-0.8,0.1c-0.8,0-1.2-0.4-1.2-1.3c0-0.9,0.5-1.3,1.6-1.3c0.1,0,0.4,0,0.7,0.1l1.3,0.2c0.3,0.1,0.7,0.1,1.1,0.1
			c0.4,0,1-0.1,1.9-0.2c0.8-0.1,1.4-0.2,1.9-0.2c1.1,0,1.6,0.4,1.6,1.3c0,0.9-0.4,1.3-1.2,1.3c-0.2,0-0.4,0-0.6-0.1
			c-0.3-0.1-0.5-0.1-0.7-0.1c-0.5,0-1,0.7-1.5,2l-5.1,13.4c-1.1,3-2.2,5.1-3.2,6.5c-1.7,2.3-3.8,3.4-6.4,3.4c-1.5,0-2.8-0.4-3.8-1.2
			c-1-0.8-1.6-1.8-1.6-3c0-0.8,0.2-1.5,0.7-2c0.4-0.5,1-0.8,1.8-0.8c0.6,0,1,0.2,1.4,0.5c0.4,0.4,0.6,0.8,0.6,1.3
			c0,0.8-0.4,1.4-1.1,1.6c0.4,0.6,1.1,0.9,2.1,0.9c1.3,0,2.5-0.5,3.6-1.6c1.1-1,1.6-2.2,1.6-3.5c0-0.7-0.3-1.9-1-3.7l-4.1-11
			l-0.4-1.3c-0.4-1.2-0.9-1.8-1.5-1.8c-0.1,0-0.4,0-0.8,0.1c-0.4,0.1-0.6,0.1-0.8,0.1c-0.9,0-1.3-0.4-1.3-1.3c0-0.9,0.6-1.3,1.7-1.3
			c0.4,0,0.7,0,0.9,0l1.5,0.2c0,0,0.1,0,0.3,0c0.2,0,0.3,0,0.4,0c0.9,0,1.9-0.1,2.9-0.2c0.8-0.1,1.3-0.1,1.5-0.1
			c1,0,1.6,0.4,1.6,1.3s-0.5,1.3-1.4,1.3c-0.1,0-0.4,0-0.7-0.1c-0.3-0.1-0.6-0.1-0.7-0.1c-0.3,0-0.5,0.2-0.5,0.6
			C834.7,91,834.8,91.3,834.9,91.6z"/>
	</g>
	<g>
		<path class="st3" d="M736.1,68.5l-1.3-3.9c-0.1-0.4-0.3-0.7-0.5-0.8c-0.2-0.1-0.5-0.2-1-0.2h-6.7c-0.5,0-0.8,0.1-1,0.3
			c-0.2,0.2-0.4,0.7-0.7,1.5l-1.1,3c-0.1,0.3-0.2,0.6-0.2,0.8c0,0.8,0.5,1.3,1.5,1.3c0.2,0,0.6,0,1.1-0.1c0.5-0.1,0.8-0.1,1-0.1
			c1,0,1.5,0.5,1.5,1.4c0,0.9-0.6,1.3-1.7,1.3c-0.2,0-0.5,0-0.8-0.1l-1.9-0.2c-0.4,0-0.9-0.1-1.7-0.1c-0.9,0-1.5,0-1.8,0.1l-1.6,0.2
			c-0.7,0.1-1.2,0.1-1.5,0.1c-1,0-1.5-0.4-1.5-1.3c0-0.9,0.5-1.4,1.4-1.4c0.2,0,0.3,0.1,0.4,0.2h0.5c0.7,0,1.2-0.3,1.5-0.8
			c0.1-0.2,0.4-0.8,0.7-1.9l7-20c0.4-1.1,1.2-1.7,2.4-1.7c1.1,0,1.9,0.6,2.3,1.7l6.7,19.6c0.4,1.2,0.8,2.1,1.2,2.5
			c0.3,0.4,0.8,0.6,1.5,0.6c0.2,0,0.3,0,0.4-0.1l1-0.1c0.9,0,1.4,0.4,1.4,1.3c0,0.9-0.5,1.4-1.4,1.4c-0.3,0-0.6,0-1.1-0.1
			c-1.6-0.2-2.7-0.3-3.5-0.3c-0.9,0-2.4,0.1-4.5,0.3c-0.5,0.1-0.9,0.1-1.2,0.1c-1,0-1.5-0.4-1.5-1.3c0-0.9,0.5-1.3,1.6-1.3
			c0.2,0,0.6,0,1,0.1c0.4,0.1,0.8,0.1,1,0.1c0.8,0,1.2-0.4,1.2-1.1C736.4,69.4,736.3,69,736.1,68.5z M733.4,60.4L730,49.5l-3.4,10.9
			c-0.1,0.2-0.1,0.3-0.1,0.3c0,0.2,0.2,0.4,0.6,0.4h6c0.3,0,0.4-0.1,0.4-0.3C733.4,60.7,733.4,60.6,733.4,60.4z"/>
		<path class="st3" d="M756.2,59.9c0-1.1,0.6-1.7,1.9-1.8c-0.1-0.9-0.5-1.6-1.3-2.2c-0.7-0.5-1.6-0.8-2.8-0.8
			c-1.7,0-3.1,0.7-4.2,2.2c-1,1.5-1.6,3.4-1.6,5.8c0,2.5,0.5,4.4,1.5,5.8c1,1.4,2.4,2.1,4.1,2.1c1.1,0,2.1-0.3,2.9-1
			c0.8-0.7,1.4-1.6,1.7-2.7c0.2-0.9,0.4-1.4,0.4-1.6c0.3-0.5,0.7-0.8,1.2-0.8c0.4,0,0.8,0.1,1,0.4c0.3,0.3,0.4,0.7,0.4,1.1
			c0,0.7-0.2,1.5-0.6,2.4c-0.4,0.9-0.9,1.7-1.4,2.3c-1.5,1.7-3.4,2.5-5.7,2.5c-2.5,0-4.6-0.9-6.2-2.8c-1.6-1.9-2.3-4.4-2.3-7.5
			c0-3.3,0.8-5.9,2.4-7.9c1.6-2,3.8-2.9,6.4-2.9c2,0,3.7,0.6,5,1.7c1.3,1.1,2,2.6,2,4.4c0,1-0.3,1.8-0.8,2.4c-0.5,0.6-1.2,0.9-2,0.9
			c-0.6,0-1.1-0.2-1.6-0.6C756.4,60.9,756.2,60.5,756.2,59.9z"/>
		<path class="st3" d="M774.8,67.5v-2.5c0-1.1,0.5-1.6,1.3-1.6c0.9,0,1.3,0.6,1.3,1.8c0,2.9-0.3,4.9-1,6c-0.9,1.5-2.5,2.3-4.6,2.3
			c-2,0-3.4-0.7-4.2-2c-0.6-1-0.9-2.6-0.9-5V57c0-0.6-0.2-0.8-0.7-0.8h-1.2c-0.4,0-0.7-0.1-1-0.4c-0.3-0.3-0.4-0.6-0.4-1
			c0-0.4,0.1-0.7,0.4-1c0.3-0.3,0.6-0.4,0.9-0.4h1.5c0.4,0,0.6-0.3,0.6-0.8v-4.1c0-1,0.5-1.5,1.5-1.5c0.9,0,1.3,0.5,1.3,1.5v4.2
			c0,0.4,0.2,0.6,0.7,0.6h4.1c0.9,0,1.4,0.5,1.4,1.4c0,1-0.5,1.5-1.5,1.5H770c-0.4,0-0.5,0.3-0.5,0.8v9.7c0,2.8,0.9,4.2,2.6,4.2
			C773.8,70.8,774.7,69.7,774.8,67.5z"/>
		<path class="st3" d="M794.7,71.9v-1.2c-1.3,1.9-3.3,2.9-5.9,2.9c-2.9,0-5-1-6.1-2.9c-0.5-0.8-0.8-1.8-0.8-3c0-0.6,0-1.7,0-3.5V61
			c0-3.6-0.4-5.4-1.1-5.4c-0.2,0-0.4,0-0.7,0.1c-0.3,0-0.6,0.1-0.8,0.1c-0.9,0-1.3-0.4-1.3-1.3c0-0.8,0.5-1.2,1.6-1.2
			c0.2,0,0.6,0,1.1,0.1c0.5,0.1,0.9,0.1,1.1,0.1c0.2,0,0.6,0,1.2-0.1c0.4-0.1,0.6-0.1,0.6-0.1c0.8,0,1.2,0.5,1.2,1.5v0.8v2.6
			l-0.1,2.9v2.6c0,2.3,0.2,3.9,0.5,4.9c0.6,1.7,1.9,2.5,4.1,2.5c1.1,0,2-0.3,2.8-0.8c0.8-0.5,1.4-1.2,1.7-2c0.4-1,0.6-3,0.6-5.9
			v-2.2c0-1.6,0-2.4,0-2.6c-0.1-1.3-0.4-1.9-1-1.9c-0.3,0-0.5,0-0.7,0h-0.4c-0.9,0-1.3-0.4-1.3-1.2c0-0.9,0.5-1.3,1.5-1.3
			c0.2,0,0.6,0,1,0.1c0.5,0.1,0.8,0.1,1,0.1c0.2,0,0.5,0,0.9-0.1c0.4-0.1,0.7-0.1,0.9-0.1c0.7,0,1.1,0.4,1.1,1.3
			c0,0.4,0,0.7-0.1,0.9c-0.1,1-0.2,2.5-0.2,4.4v6.1c0,1.6,0,2.5,0,2.7c0.1,1.4,0.5,2.1,1,2.1c0.2,0,0.4,0,0.7-0.1
			c0.3-0.1,0.6-0.1,0.7-0.1c0.8,0,1.3,0.4,1.3,1.3c0,0.9-0.5,1.3-1.6,1.3c-0.2,0-0.5,0-1-0.1c-0.6-0.1-1-0.1-1.2-0.1
			c-0.1,0-0.3,0-0.8,0.1c-0.3,0.1-0.6,0.1-0.8,0.1C795.1,73.1,794.7,72.7,794.7,71.9z"/>
		<path class="st3" d="M818.7,73.4c-2,0-3.3-0.9-3.8-2.8c-1.3,2-3.3,3-6,3c-2,0-3.6-0.5-4.9-1.6c-1.2-1.1-1.8-2.5-1.8-4.2
			c0-2.2,0.9-3.8,2.7-4.8c0.7-0.4,1.3-0.7,1.7-0.8c0.5-0.1,1.5-0.3,2.9-0.5c2.1-0.2,3.5-0.6,4.1-1c0.6-0.4,1-1.2,1-2.3
			c0-1.1-0.4-1.9-1.1-2.6c-0.7-0.6-1.7-0.9-3-0.9c-1.1,0-2.2,0.3-3.1,1c-0.4,0.3-0.6,0.5-0.6,0.8c0,0.1,0.1,0.2,0.3,0.4
			c0.3,0.3,0.5,0.7,0.5,1.3c0,0.5-0.2,1-0.5,1.3c-0.4,0.3-0.8,0.5-1.4,0.5c-0.6,0-1.2-0.2-1.6-0.7c-0.4-0.5-0.7-1.1-0.7-1.7
			c0-1.5,0.7-2.7,2.1-3.8c1.4-1.1,3.1-1.6,5-1.6c4.5,0,6.8,2.3,6.8,6.9v8c0,1.3,0,2,0.1,2.3c0.1,0.9,0.6,1.4,1.3,1.4
			c0.9,0,1.3-0.8,1.3-2.5v-1.9c0-0.8,0.4-1.3,1.1-1.3c0.8,0,1.2,0.6,1.2,1.9v0.2v2.3C822.4,72.2,821.2,73.4,818.7,73.4z M814.5,65.6
			v-2.8c-0.5,0.5-1.1,0.9-1.7,1.1c-0.6,0.2-1.7,0.4-3.3,0.6c-2.8,0.3-4.3,1.4-4.3,3.3c0,1,0.3,1.8,1,2.4c0.7,0.6,1.6,0.9,2.8,0.9
			c1.7,0,3-0.5,4-1.4C814,68.6,814.5,67.3,814.5,65.6z"/>
		<path class="st3" d="M829.6,56.4v12.3c0,1.3,0.4,2,1,2c0.2,0,0.5-0.1,0.9-0.2c0.3-0.1,0.5-0.1,0.6-0.1c0.8,0,1.2,0.4,1.2,1.3
			c0,0.9-0.5,1.3-1.5,1.3c-0.4,0-1-0.1-1.9-0.2c-0.9-0.1-1.5-0.2-2-0.2c-0.4,0-1,0.1-1.8,0.2c-0.8,0.1-1.4,0.2-1.8,0.2h-0.2
			c-1,0-1.6-0.5-1.6-1.4c0-0.8,0.4-1.2,1.3-1.2c0.1,0,0.1,0,0.3,0c0.2,0,0.3,0.1,0.3,0.1c0.6,0.1,1,0.2,1.1,0.2
			c0.5,0,0.7-0.2,0.9-0.6c0.1-0.4,0.2-1.5,0.2-3.2l0-2.8V58v-7.1c0-0.8-0.1-1.3-0.1-1.6c-0.2-0.6-0.5-0.9-1-0.9
			c-0.1,0-0.4,0.1-1,0.2c-0.3,0.1-0.5,0.1-0.7,0.1c-0.8,0-1.3-0.4-1.3-1.3c0-0.9,0.5-1.3,1.5-1.3c0.3,0,0.5,0,0.7,0l0.9,0.1
			c0.4,0.1,0.7,0.1,1,0.1c0.2,0,0.6,0,1.1-0.1c0.5-0.1,0.9-0.1,1.1-0.1c0.6,0,0.9,0.4,0.9,1.1c0,0.3,0,0.5,0,0.6
			C829.7,49.8,829.6,52.7,829.6,56.4z"/>
	</g>
</g>
<g>
	<path class="st4" d="M118.1,145h-2.3l-1.6-4.5h-6.9l-1.6,4.5h-2.2l5.8-16h2.8L118.1,145z M113.6,138.8l-2.8-7.9l-2.8,7.9H113.6z"/>
	<path class="st4" d="M130.1,143.7c0,2-0.5,3.5-1.4,4.5s-2.3,1.4-4.3,1.4c-0.6,0-1.3,0-1.9-0.1c-0.6-0.1-1.2-0.2-1.8-0.4V147h0.1
		c0.3,0.1,0.9,0.3,1.6,0.5c0.7,0.2,1.4,0.3,2.1,0.3c0.7,0,1.3-0.1,1.7-0.2s0.8-0.4,1.1-0.7c0.3-0.3,0.4-0.6,0.5-1s0.2-0.8,0.2-1.3
		v-1.1c-0.6,0.5-1.2,0.9-1.7,1.1c-0.6,0.2-1.3,0.4-2.1,0.4c-1.4,0-2.6-0.5-3.4-1.6c-0.8-1-1.3-2.5-1.3-4.4c0-1,0.1-1.9,0.4-2.7
		c0.3-0.7,0.7-1.4,1.2-1.9c0.5-0.5,1-0.9,1.7-1.2c0.7-0.3,1.3-0.4,2-0.4c0.7,0,1.3,0.1,1.7,0.2c0.5,0.1,1,0.4,1.5,0.6l0.1-0.5h1.9
		V143.7z M128.1,141.7v-6.5c-0.5-0.2-1-0.4-1.5-0.5c-0.5-0.1-0.9-0.2-1.4-0.2c-1.1,0-2,0.4-2.6,1.1c-0.6,0.7-1,1.8-1,3.2
		c0,1.3,0.2,2.4,0.7,3.1s1.3,1,2.4,1c0.6,0,1.2-0.1,1.8-0.3C127,142.4,127.6,142.1,128.1,141.7z"/>
	<path class="st4" d="M144.3,139.1c0,2-0.5,3.5-1.5,4.6c-1,1.1-2.3,1.7-4,1.7c-1.7,0-3-0.6-4-1.7s-1.5-2.7-1.5-4.6s0.5-3.5,1.5-4.6
		c1-1.1,2.3-1.7,4-1.7c1.7,0,3,0.6,4,1.7C143.8,135.6,144.3,137.1,144.3,139.1z M142.2,139.1c0-1.6-0.3-2.7-0.9-3.5
		c-0.6-0.8-1.5-1.1-2.5-1.1c-1.1,0-1.9,0.4-2.6,1.1c-0.6,0.8-0.9,1.9-0.9,3.5c0,1.5,0.3,2.6,0.9,3.4c0.6,0.8,1.5,1.2,2.5,1.2
		c1.1,0,1.9-0.4,2.5-1.2C141.9,141.7,142.2,140.6,142.2,139.1z"/>
	<path class="st4" d="M157.5,145h-2v-6.8c0-0.6,0-1.1-0.1-1.6c-0.1-0.5-0.2-0.9-0.4-1.1c-0.2-0.3-0.4-0.5-0.8-0.7
		c-0.3-0.1-0.8-0.2-1.3-0.2c-0.6,0-1.1,0.1-1.7,0.4s-1.2,0.6-1.7,1v9h-2v-12h2v1.3c0.6-0.5,1.3-0.9,2-1.2c0.7-0.3,1.4-0.4,2.1-0.4
		c1.3,0,2.3,0.4,3,1.2c0.7,0.8,1,1.9,1,3.4V145z"/>
	<path class="st4" d="M171.5,133l-7,16.4h-2.2l2.2-5l-4.8-11.4h2.2l3.7,8.9l3.7-8.9H171.5z"/>
	<path class="st4" d="M191.2,145h-2v-1.3c-0.2,0.1-0.4,0.3-0.7,0.5c-0.3,0.2-0.6,0.4-0.9,0.5c-0.3,0.2-0.7,0.3-1.2,0.4
		c-0.4,0.1-0.9,0.2-1.5,0.2c-1.1,0-2-0.4-2.8-1.1s-1.1-1.6-1.1-2.7c0-0.9,0.2-1.6,0.6-2.2c0.4-0.6,0.9-1,1.7-1.3
		c0.7-0.3,1.6-0.5,2.6-0.7c1-0.1,2.1-0.2,3.3-0.3v-0.3c0-0.5-0.1-0.8-0.2-1.1s-0.4-0.5-0.7-0.7c-0.3-0.2-0.6-0.3-1-0.3
		c-0.4-0.1-0.8-0.1-1.3-0.1c-0.5,0-1.1,0.1-1.8,0.2c-0.7,0.1-1.3,0.3-2,0.6h-0.1v-2.1c0.4-0.1,1-0.2,1.7-0.4
		c0.7-0.1,1.5-0.2,2.2-0.2c0.8,0,1.6,0.1,2.2,0.2c0.6,0.1,1.2,0.4,1.6,0.7c0.5,0.3,0.8,0.8,1,1.3s0.4,1.2,0.4,1.9V145z M189.2,142.1
		v-3.3c-0.6,0-1.3,0.1-2.2,0.2c-0.8,0.1-1.5,0.2-2,0.3c-0.6,0.2-1,0.4-1.4,0.8c-0.4,0.3-0.5,0.8-0.5,1.4c0,0.7,0.2,1.2,0.6,1.6
		c0.4,0.3,1,0.5,1.9,0.5c0.7,0,1.4-0.1,1.9-0.4C188.2,142.8,188.7,142.5,189.2,142.1z"/>
	<path class="st4" d="M205.1,145h-2v-6.8c0-0.6,0-1.1-0.1-1.6c-0.1-0.5-0.2-0.9-0.4-1.1c-0.2-0.3-0.4-0.5-0.8-0.7
		c-0.3-0.1-0.8-0.2-1.3-0.2c-0.6,0-1.1,0.1-1.7,0.4s-1.2,0.6-1.7,1v9h-2v-12h2v1.3c0.6-0.5,1.3-0.9,2-1.2c0.7-0.3,1.4-0.4,2.1-0.4
		c1.3,0,2.3,0.4,3,1.2c0.7,0.8,1,1.9,1,3.4V145z"/>
	<path class="st4" d="M218.8,145h-2v-1.3c-0.6,0.5-1.2,0.9-1.8,1.2c-0.6,0.3-1.3,0.4-2.1,0.4c-1.4,0-2.6-0.6-3.4-1.7
		c-0.8-1.1-1.3-2.6-1.3-4.6c0-1,0.1-1.9,0.4-2.7s0.7-1.5,1.2-2c0.5-0.5,1.1-1,1.7-1.2c0.6-0.3,1.3-0.4,2-0.4c0.6,0,1.2,0.1,1.7,0.2
		c0.5,0.1,1,0.3,1.5,0.6v-5.2h2V145z M216.7,142.1v-6.9c-0.5-0.2-1-0.4-1.5-0.5s-0.9-0.1-1.4-0.1c-1.1,0-2,0.4-2.6,1.2
		c-0.6,0.8-0.9,1.9-0.9,3.4c0,1.4,0.2,2.5,0.7,3.2c0.5,0.7,1.3,1.1,2.3,1.1c0.6,0,1.2-0.1,1.7-0.4
		C215.7,142.8,216.2,142.5,216.7,142.1z"/>
	<path class="st4" d="M236.7,144.9c-0.4,0.1-0.8,0.2-1.2,0.2c-0.4,0.1-0.8,0.1-1.2,0.1c-1.2,0-2.2-0.3-2.8-1c-0.6-0.7-1-1.7-1-3.2
		v-6.4h-1.4V133h1.4v-3.4h2v3.4h4.2v1.7h-4.2v5.5c0,0.6,0,1.1,0,1.5c0,0.4,0.1,0.7,0.3,1c0.2,0.3,0.4,0.5,0.6,0.6
		c0.3,0.1,0.7,0.2,1.3,0.2c0.3,0,0.7,0,1-0.1c0.4-0.1,0.6-0.2,0.8-0.2h0.1V144.9z"/>
	<path class="st4" d="M249.2,145h-2v-6.8c0-0.6,0-1.1-0.1-1.6c-0.1-0.5-0.2-0.9-0.4-1.1c-0.2-0.3-0.4-0.5-0.8-0.7
		c-0.3-0.1-0.8-0.2-1.3-0.2c-0.6,0-1.1,0.1-1.7,0.4s-1.2,0.6-1.7,1v9h-2v-16.7h2v6c0.6-0.5,1.3-0.9,2-1.2c0.7-0.3,1.4-0.4,2.1-0.4
		c1.3,0,2.3,0.4,3,1.2c0.7,0.8,1,1.9,1,3.4V145z"/>
	<path class="st4" d="M263.1,139.3h-8.8c0,0.7,0.1,1.4,0.3,1.9c0.2,0.5,0.5,1,0.9,1.3c0.4,0.3,0.8,0.6,1.3,0.8
		c0.5,0.2,1.1,0.3,1.7,0.3c0.8,0,1.6-0.2,2.5-0.5c0.8-0.3,1.4-0.6,1.8-1h0.1v2.2c-0.7,0.3-1.4,0.5-2.1,0.7s-1.5,0.3-2.2,0.3
		c-2,0-3.5-0.5-4.7-1.6c-1.1-1.1-1.7-2.6-1.7-4.6c0-2,0.5-3.5,1.6-4.7c1.1-1.2,2.5-1.7,4.2-1.7c1.6,0,2.9,0.5,3.7,1.4
		c0.9,0.9,1.3,2.3,1.3,4V139.3z M261.1,137.7c0-1.1-0.3-1.9-0.8-2.5s-1.3-0.9-2.4-0.9c-1.1,0-1.9,0.3-2.6,1c-0.6,0.6-1,1.4-1.1,2.4
		H261.1z"/>
	<path class="st4" d="M276.1,131h-2.3v-2.1h2.3V131z M275.9,145h-2v-12h2V145z"/>
	<path class="st4" d="M290,145h-2v-6.8c0-0.6,0-1.1-0.1-1.6c-0.1-0.5-0.2-0.9-0.4-1.1c-0.2-0.3-0.4-0.5-0.8-0.7
		c-0.3-0.1-0.8-0.2-1.3-0.2c-0.6,0-1.1,0.1-1.7,0.4s-1.2,0.6-1.7,1v9h-2v-12h2v1.3c0.6-0.5,1.3-0.9,2-1.2c0.7-0.3,1.4-0.4,2.1-0.4
		c1.3,0,2.3,0.4,3,1.2c0.7,0.8,1,1.9,1,3.4V145z"/>
	<path class="st4" d="M304,133l-4.9,12h-2l-4.8-12h2.2l3.7,9.5l3.7-9.5H304z"/>
	<path class="st4" d="M316.7,139.1c0,2-0.5,3.5-1.5,4.6c-1,1.1-2.3,1.7-4,1.7c-1.7,0-3-0.6-4-1.7s-1.5-2.7-1.5-4.6s0.5-3.5,1.5-4.6
		c1-1.1,2.3-1.7,4-1.7c1.7,0,3,0.6,4,1.7C316.2,135.6,316.7,137.1,316.7,139.1z M314.6,139.1c0-1.6-0.3-2.7-0.9-3.5
		c-0.6-0.8-1.5-1.1-2.5-1.1c-1.1,0-1.9,0.4-2.6,1.1c-0.6,0.8-0.9,1.9-0.9,3.5c0,1.5,0.3,2.6,0.9,3.4c0.6,0.8,1.5,1.2,2.5,1.2
		c1.1,0,1.9-0.4,2.5-1.2C314.3,141.7,314.6,140.6,314.6,139.1z"/>
	<path class="st4" d="M321.9,145h-2v-16.7h2V145z"/>
	<path class="st4" d="M335.8,145h-2v-1.3c-0.7,0.5-1.3,0.9-2,1.2s-1.3,0.4-2.1,0.4c-1.3,0-2.2-0.4-2.9-1.2c-0.7-0.8-1.1-1.9-1.1-3.4
		V133h2v6.8c0,0.6,0,1.1,0.1,1.6c0.1,0.4,0.2,0.8,0.4,1.1c0.2,0.3,0.4,0.5,0.8,0.7c0.3,0.1,0.8,0.2,1.3,0.2c0.5,0,1.1-0.1,1.7-0.4
		c0.6-0.3,1.2-0.6,1.7-1v-9h2V145z"/>
	<path class="st4" d="M349.8,145h-2v-6.8c0-0.6,0-1.1-0.1-1.6c-0.1-0.5-0.2-0.9-0.4-1.1c-0.2-0.3-0.4-0.5-0.8-0.7
		c-0.3-0.1-0.8-0.2-1.3-0.2c-0.6,0-1.1,0.1-1.7,0.4s-1.2,0.6-1.7,1v9h-2v-12h2v1.3c0.6-0.5,1.3-0.9,2-1.2c0.7-0.3,1.4-0.4,2.1-0.4
		c1.3,0,2.3,0.4,3,1.2c0.7,0.8,1,1.9,1,3.4V145z"/>
	<path class="st4" d="M359.9,144.9c-0.4,0.1-0.8,0.2-1.2,0.2c-0.4,0.1-0.8,0.1-1.2,0.1c-1.2,0-2.2-0.3-2.8-1c-0.6-0.7-1-1.7-1-3.2
		v-6.4h-1.4V133h1.4v-3.4h2v3.4h4.2v1.7h-4.2v5.5c0,0.6,0,1.1,0,1.5c0,0.4,0.1,0.7,0.3,1c0.2,0.3,0.4,0.5,0.6,0.6
		c0.3,0.1,0.7,0.2,1.3,0.2c0.3,0,0.7,0,1-0.1c0.4-0.1,0.6-0.2,0.8-0.2h0.1V144.9z"/>
	<path class="st4" d="M371.7,145h-2v-1.3c-0.2,0.1-0.4,0.3-0.7,0.5c-0.3,0.2-0.6,0.4-0.9,0.5c-0.3,0.2-0.7,0.3-1.2,0.4
		c-0.4,0.1-0.9,0.2-1.5,0.2c-1.1,0-2-0.4-2.8-1.1s-1.1-1.6-1.1-2.7c0-0.9,0.2-1.6,0.6-2.2c0.4-0.6,0.9-1,1.7-1.3
		c0.7-0.3,1.6-0.5,2.6-0.7c1-0.1,2.1-0.2,3.3-0.3v-0.3c0-0.5-0.1-0.8-0.2-1.1s-0.4-0.5-0.7-0.7c-0.3-0.2-0.6-0.3-1-0.3
		c-0.4-0.1-0.8-0.1-1.3-0.1c-0.5,0-1.1,0.1-1.8,0.2c-0.7,0.1-1.3,0.3-2,0.6h-0.1v-2.1c0.4-0.1,1-0.2,1.7-0.4
		c0.7-0.1,1.5-0.2,2.2-0.2c0.8,0,1.6,0.1,2.2,0.2c0.6,0.1,1.2,0.4,1.6,0.7c0.5,0.3,0.8,0.8,1,1.3s0.4,1.2,0.4,1.9V145z M369.7,142.1
		v-3.3c-0.6,0-1.3,0.1-2.2,0.2c-0.8,0.1-1.5,0.2-2,0.3c-0.6,0.2-1,0.4-1.4,0.8c-0.4,0.3-0.5,0.8-0.5,1.4c0,0.7,0.2,1.2,0.6,1.6
		c0.4,0.3,1,0.5,1.9,0.5c0.7,0,1.4-0.1,1.9-0.4C368.6,142.8,369.2,142.5,369.7,142.1z"/>
	<path class="st4" d="M383.1,135.3H383c-0.3-0.1-0.6-0.1-0.9-0.2c-0.3,0-0.6,0-1,0c-0.6,0-1.2,0.1-1.8,0.4c-0.6,0.3-1.1,0.6-1.7,1.1
		v8.5h-2v-12h2v1.8c0.8-0.6,1.5-1.1,2.1-1.4c0.6-0.3,1.2-0.4,1.9-0.4c0.4,0,0.6,0,0.8,0c0.2,0,0.4,0.1,0.7,0.1V135.3z"/>
	<path class="st4" d="M395.3,133l-7,16.4h-2.2l2.2-5l-4.8-11.4h2.2l3.7,8.9l3.7-8.9H395.3z"/>
	<path class="st4" d="M413.2,135.3h-0.1c-0.3-0.1-0.6-0.1-0.9-0.2c-0.3,0-0.6,0-1,0c-0.6,0-1.2,0.1-1.8,0.4
		c-0.6,0.3-1.1,0.6-1.7,1.1v8.5h-2v-12h2v1.8c0.8-0.6,1.5-1.1,2.1-1.4c0.6-0.3,1.2-0.4,1.9-0.4c0.4,0,0.6,0,0.8,0
		c0.2,0,0.4,0.1,0.7,0.1V135.3z"/>
	<path class="st4" d="M425.2,139.3h-8.8c0,0.7,0.1,1.4,0.3,1.9c0.2,0.5,0.5,1,0.9,1.3c0.4,0.3,0.8,0.6,1.3,0.8
		c0.5,0.2,1.1,0.3,1.7,0.3c0.8,0,1.6-0.2,2.5-0.5c0.8-0.3,1.4-0.6,1.8-1h0.1v2.2c-0.7,0.3-1.4,0.5-2.1,0.7s-1.5,0.3-2.2,0.3
		c-2,0-3.5-0.5-4.7-1.6c-1.1-1.1-1.7-2.6-1.7-4.6c0-2,0.5-3.5,1.6-4.7c1.1-1.2,2.5-1.7,4.2-1.7c1.6,0,2.9,0.5,3.7,1.4
		c0.9,0.9,1.3,2.3,1.3,4V139.3z M423.2,137.7c0-1.1-0.3-1.9-0.8-2.5c-0.5-0.6-1.3-0.9-2.4-0.9c-1.1,0-1.9,0.3-2.6,1
		c-0.6,0.6-1,1.4-1.1,2.4H423.2z"/>
	<path class="st4" d="M438.4,139.1c0,2-0.5,3.5-1.5,4.6s-2.3,1.7-4,1.7c-1.7,0-3-0.6-4-1.7c-1-1.1-1.5-2.7-1.5-4.6s0.5-3.5,1.5-4.6
		c1-1.1,2.3-1.7,4-1.7c1.7,0,3,0.6,4,1.7C437.9,135.6,438.4,137.1,438.4,139.1z M436.4,139.1c0-1.6-0.3-2.7-0.9-3.5
		c-0.6-0.8-1.5-1.1-2.5-1.1c-1.1,0-1.9,0.4-2.6,1.1c-0.6,0.8-0.9,1.9-0.9,3.5c0,1.5,0.3,2.6,0.9,3.4c0.6,0.8,1.5,1.2,2.5,1.2
		c1.1,0,1.9-0.4,2.5-1.2C436.1,141.7,436.4,140.6,436.4,139.1z"/>
	<path class="st4" d="M449.1,135.3H449c-0.3-0.1-0.6-0.1-0.9-0.2c-0.3,0-0.6,0-1,0c-0.6,0-1.2,0.1-1.8,0.4c-0.6,0.3-1.1,0.6-1.7,1.1
		v8.5h-2v-12h2v1.8c0.8-0.6,1.5-1.1,2.1-1.4c0.6-0.3,1.2-0.4,1.9-0.4c0.4,0,0.6,0,0.8,0c0.2,0,0.4,0.1,0.7,0.1V135.3z"/>
	<path class="st4" d="M460.7,143.7c0,2-0.5,3.5-1.4,4.5s-2.3,1.4-4.3,1.4c-0.6,0-1.3,0-1.9-0.1c-0.6-0.1-1.2-0.2-1.8-0.4V147h0.1
		c0.3,0.1,0.9,0.3,1.6,0.5c0.7,0.2,1.4,0.3,2.1,0.3c0.7,0,1.3-0.1,1.7-0.2s0.8-0.4,1.1-0.7c0.3-0.3,0.4-0.6,0.5-1s0.2-0.8,0.2-1.3
		v-1.1c-0.6,0.5-1.2,0.9-1.7,1.1c-0.6,0.2-1.3,0.4-2.1,0.4c-1.4,0-2.6-0.5-3.4-1.6c-0.8-1-1.3-2.5-1.3-4.4c0-1,0.1-1.9,0.4-2.7
		c0.3-0.7,0.7-1.4,1.2-1.9c0.5-0.5,1-0.9,1.7-1.2c0.7-0.3,1.3-0.4,2-0.4c0.7,0,1.3,0.1,1.7,0.2c0.5,0.1,1,0.4,1.5,0.6l0.1-0.5h1.9
		V143.7z M458.7,141.7v-6.5c-0.5-0.2-1-0.4-1.5-0.5c-0.5-0.1-0.9-0.2-1.4-0.2c-1.1,0-2,0.4-2.6,1.1s-1,1.8-1,3.2
		c0,1.3,0.2,2.4,0.7,3.1s1.3,1,2.4,1c0.6,0,1.2-0.1,1.8-0.3C457.6,142.4,458.2,142.1,458.7,141.7z"/>
	<path class="st4" d="M474,145h-2v-1.3c-0.2,0.1-0.4,0.3-0.7,0.5c-0.3,0.2-0.6,0.4-0.9,0.5c-0.3,0.2-0.7,0.3-1.2,0.4
		c-0.4,0.1-0.9,0.2-1.5,0.2c-1.1,0-2-0.4-2.8-1.1s-1.1-1.6-1.1-2.7c0-0.9,0.2-1.6,0.6-2.2c0.4-0.6,0.9-1,1.7-1.3
		c0.7-0.3,1.6-0.5,2.6-0.7s2.1-0.2,3.3-0.3v-0.3c0-0.5-0.1-0.8-0.2-1.1c-0.2-0.3-0.4-0.5-0.7-0.7c-0.3-0.2-0.6-0.3-1-0.3
		s-0.8-0.1-1.3-0.1c-0.5,0-1.1,0.1-1.8,0.2c-0.7,0.1-1.3,0.3-2,0.6h-0.1v-2.1c0.4-0.1,1-0.2,1.7-0.4s1.5-0.2,2.2-0.2
		c0.8,0,1.6,0.1,2.2,0.2c0.6,0.1,1.2,0.4,1.6,0.7c0.5,0.3,0.8,0.8,1,1.3s0.4,1.2,0.4,1.9V145z M472,142.1v-3.3
		c-0.6,0-1.3,0.1-2.2,0.2c-0.8,0.1-1.5,0.2-2,0.3c-0.6,0.2-1,0.4-1.4,0.8c-0.4,0.3-0.5,0.8-0.5,1.4c0,0.7,0.2,1.2,0.6,1.6
		c0.4,0.3,1,0.5,1.9,0.5c0.7,0,1.4-0.1,1.9-0.4C470.9,142.8,471.5,142.5,472,142.1z"/>
	<path class="st4" d="M487.9,145h-2v-6.8c0-0.6,0-1.1-0.1-1.6c-0.1-0.5-0.2-0.9-0.4-1.1c-0.2-0.3-0.4-0.5-0.8-0.7
		c-0.3-0.1-0.8-0.2-1.3-0.2c-0.6,0-1.1,0.1-1.7,0.4s-1.2,0.6-1.7,1v9h-2v-12h2v1.3c0.6-0.5,1.3-0.9,2-1.2s1.4-0.4,2.1-0.4
		c1.3,0,2.3,0.4,3,1.2s1,1.9,1,3.4V145z"/>
	<path class="st4" d="M494,131h-2.3v-2.1h2.3V131z M493.8,145h-2v-12h2V145z"/>
	<path class="st4" d="M506.5,145h-9.7v-1.5l7-8.8H497V133h9.4v1.4l-7,8.9h7.2V145z"/>
	<path class="st4" d="M518.7,145h-2v-1.3c-0.2,0.1-0.4,0.3-0.7,0.5c-0.3,0.2-0.6,0.4-0.9,0.5c-0.3,0.2-0.7,0.3-1.2,0.4
		c-0.4,0.1-0.9,0.2-1.5,0.2c-1.1,0-2-0.4-2.8-1.1s-1.1-1.6-1.1-2.7c0-0.9,0.2-1.6,0.6-2.2c0.4-0.6,0.9-1,1.7-1.3
		c0.7-0.3,1.6-0.5,2.6-0.7s2.1-0.2,3.3-0.3v-0.3c0-0.5-0.1-0.8-0.2-1.1c-0.2-0.3-0.4-0.5-0.7-0.7c-0.3-0.2-0.6-0.3-1-0.3
		s-0.8-0.1-1.3-0.1c-0.5,0-1.1,0.1-1.8,0.2c-0.7,0.1-1.3,0.3-2,0.6h-0.1v-2.1c0.4-0.1,1-0.2,1.7-0.4c0.7-0.1,1.5-0.2,2.2-0.2
		c0.8,0,1.6,0.1,2.2,0.2c0.6,0.1,1.2,0.4,1.6,0.7c0.5,0.3,0.8,0.8,1,1.3s0.4,1.2,0.4,1.9V145z M516.7,142.1v-3.3
		c-0.6,0-1.3,0.1-2.2,0.2c-0.8,0.1-1.5,0.2-2,0.3c-0.6,0.2-1,0.4-1.4,0.8c-0.4,0.3-0.5,0.8-0.5,1.4c0,0.7,0.2,1.2,0.6,1.6
		c0.4,0.3,1,0.5,1.9,0.5c0.7,0,1.4-0.1,1.9-0.4C515.7,142.8,516.2,142.5,516.7,142.1z"/>
	<path class="st4" d="M528.8,144.9c-0.4,0.1-0.8,0.2-1.2,0.2c-0.4,0.1-0.8,0.1-1.2,0.1c-1.2,0-2.2-0.3-2.8-1s-1-1.7-1-3.2v-6.4h-1.4
		V133h1.4v-3.4h2v3.4h4.2v1.7h-4.2v5.5c0,0.6,0,1.1,0,1.5c0,0.4,0.1,0.7,0.3,1c0.2,0.3,0.4,0.5,0.6,0.6c0.3,0.1,0.7,0.2,1.3,0.2
		c0.3,0,0.7,0,1-0.1c0.4-0.1,0.6-0.2,0.8-0.2h0.1V144.9z"/>
	<path class="st4" d="M533.5,131h-2.3v-2.1h2.3V131z M533.3,145h-2v-12h2V145z"/>
	<path class="st4" d="M547.5,139.1c0,2-0.5,3.5-1.5,4.6s-2.3,1.7-4,1.7c-1.7,0-3-0.6-4-1.7c-1-1.1-1.5-2.7-1.5-4.6s0.5-3.5,1.5-4.6
		c1-1.1,2.3-1.7,4-1.7c1.7,0,3,0.6,4,1.7C547,135.6,547.5,137.1,547.5,139.1z M545.5,139.1c0-1.6-0.3-2.7-0.9-3.5
		c-0.6-0.8-1.5-1.1-2.5-1.1c-1.1,0-1.9,0.4-2.6,1.1c-0.6,0.8-0.9,1.9-0.9,3.5c0,1.5,0.3,2.6,0.9,3.4c0.6,0.8,1.5,1.2,2.5,1.2
		c1.1,0,1.9-0.4,2.5-1.2C545.2,141.7,545.5,140.6,545.5,139.1z"/>
	<path class="st4" d="M560.7,145h-2v-6.8c0-0.6,0-1.1-0.1-1.6c-0.1-0.5-0.2-0.9-0.4-1.1c-0.2-0.3-0.4-0.5-0.8-0.7
		c-0.3-0.1-0.8-0.2-1.3-0.2c-0.6,0-1.1,0.1-1.7,0.4s-1.2,0.6-1.7,1v9h-2v-12h2v1.3c0.6-0.5,1.3-0.9,2-1.2s1.4-0.4,2.1-0.4
		c1.3,0,2.3,0.4,3,1.2s1,1.9,1,3.4V145z"/>
	<path class="st4" d="M582.6,139.1c0,2-0.5,3.5-1.5,4.6s-2.3,1.7-4,1.7c-1.7,0-3-0.6-4-1.7c-1-1.1-1.5-2.7-1.5-4.6s0.5-3.5,1.5-4.6
		c1-1.1,2.3-1.7,4-1.7c1.7,0,3,0.6,4,1.7C582.1,135.6,582.6,137.1,582.6,139.1z M580.5,139.1c0-1.6-0.3-2.7-0.9-3.5
		c-0.6-0.8-1.5-1.1-2.5-1.1c-1.1,0-1.9,0.4-2.6,1.1c-0.6,0.8-0.9,1.9-0.9,3.5c0,1.5,0.3,2.6,0.9,3.4c0.6,0.8,1.5,1.2,2.5,1.2
		c1.1,0,1.9-0.4,2.5-1.2C580.2,141.7,580.5,140.6,580.5,139.1z"/>
	<path class="st4" d="M592.1,130.3H592c-0.2-0.1-0.5-0.1-0.9-0.2c-0.4-0.1-0.7-0.1-0.9-0.1c-0.9,0-1.5,0.2-1.9,0.6
		c-0.4,0.4-0.6,1.1-0.6,2.1v0.4h3.6v1.7h-3.6V145h-2v-10.3h-1.4V133h1.4v-0.4c0-1.4,0.4-2.5,1.1-3.3c0.7-0.8,1.7-1.1,3.1-1.1
		c0.5,0,0.9,0,1.2,0.1c0.4,0,0.7,0.1,1,0.2V130.3z"/>
	<path class="st4" d="M618.7,145h-2v-6.8c0-0.5,0-1-0.1-1.5c0-0.5-0.1-0.9-0.3-1.1c-0.2-0.3-0.4-0.5-0.7-0.7s-0.8-0.2-1.3-0.2
		c-0.6,0-1.1,0.1-1.7,0.4c-0.6,0.3-1.1,0.6-1.7,1.1c0,0.2,0,0.4,0.1,0.6c0,0.2,0,0.4,0,0.6v7.7h-2v-6.8c0-0.5,0-1-0.1-1.5
		c0-0.5-0.1-0.9-0.3-1.1c-0.2-0.3-0.4-0.5-0.7-0.7c-0.3-0.2-0.8-0.2-1.3-0.2c-0.6,0-1.1,0.1-1.7,0.4c-0.6,0.3-1.1,0.6-1.7,1v9h-2
		v-12h2v1.3c0.6-0.5,1.3-0.9,1.9-1.2c0.6-0.3,1.3-0.4,2-0.4c0.8,0,1.5,0.2,2.1,0.5c0.6,0.3,1,0.8,1.3,1.4c0.8-0.7,1.6-1.2,2.2-1.5
		c0.7-0.3,1.4-0.5,2.2-0.5c1.3,0,2.3,0.4,2.9,1.2c0.6,0.8,0.9,1.9,0.9,3.3V145z"/>
	<path class="st4" d="M632.7,133l-7,16.4h-2.2l2.2-5L621,133h2.2l3.7,8.9l3.7-8.9H632.7z"/>
	<path class="st4" d="M653.1,139.3h-8.8c0,0.7,0.1,1.4,0.3,1.9c0.2,0.5,0.5,1,0.9,1.3c0.4,0.3,0.8,0.6,1.3,0.8
		c0.5,0.2,1.1,0.3,1.7,0.3c0.8,0,1.6-0.2,2.5-0.5c0.8-0.3,1.4-0.6,1.8-1h0.1v2.2c-0.7,0.3-1.4,0.5-2.1,0.7s-1.5,0.3-2.2,0.3
		c-2,0-3.5-0.5-4.7-1.6c-1.1-1.1-1.7-2.6-1.7-4.6c0-2,0.5-3.5,1.6-4.7c1.1-1.2,2.5-1.7,4.2-1.7c1.6,0,2.9,0.5,3.7,1.4
		c0.9,0.9,1.3,2.3,1.3,4V139.3z M651.2,137.7c0-1.1-0.3-1.9-0.8-2.5c-0.5-0.6-1.3-0.9-2.4-0.9c-1.1,0-1.9,0.3-2.6,1
		c-0.6,0.6-1,1.4-1.1,2.4H651.2z"/>
	<path class="st4" d="M666.2,145h-2v-6.8c0-0.6,0-1.1-0.1-1.6c-0.1-0.5-0.2-0.9-0.4-1.1c-0.2-0.3-0.4-0.5-0.8-0.7
		c-0.3-0.1-0.8-0.2-1.3-0.2c-0.6,0-1.1,0.1-1.7,0.4s-1.2,0.6-1.7,1v9h-2v-12h2v1.3c0.6-0.5,1.3-0.9,2-1.2s1.4-0.4,2.1-0.4
		c1.3,0,2.3,0.4,3,1.2s1,1.9,1,3.4V145z"/>
	<path class="st4" d="M676.3,144.9c-0.4,0.1-0.8,0.2-1.2,0.2c-0.4,0.1-0.8,0.1-1.2,0.1c-1.2,0-2.2-0.3-2.8-1s-1-1.7-1-3.2v-6.4h-1.4
		V133h1.4v-3.4h2v3.4h4.2v1.7h-4.2v5.5c0,0.6,0,1.1,0,1.5c0,0.4,0.1,0.7,0.3,1c0.2,0.3,0.4,0.5,0.6,0.6c0.3,0.1,0.7,0.2,1.3,0.2
		c0.3,0,0.7,0,1-0.1c0.4-0.1,0.6-0.2,0.8-0.2h0.1V144.9z"/>
	<path class="st4" d="M681,131h-2.3v-2.1h2.3V131z M680.8,145h-2v-12h2V145z"/>
	<path class="st4" d="M692.3,135.3h-0.1c-0.3-0.1-0.6-0.1-0.9-0.2c-0.3,0-0.6,0-1,0c-0.6,0-1.2,0.1-1.8,0.4
		c-0.6,0.3-1.1,0.6-1.7,1.1v8.5h-2v-12h2v1.8c0.8-0.6,1.5-1.1,2.1-1.4c0.6-0.3,1.2-0.4,1.9-0.4c0.4,0,0.6,0,0.8,0
		c0.2,0,0.4,0.1,0.7,0.1V135.3z"/>
	<path class="st4" d="M704.3,139.3h-8.8c0,0.7,0.1,1.4,0.3,1.9c0.2,0.5,0.5,1,0.9,1.3c0.4,0.3,0.8,0.6,1.3,0.8
		c0.5,0.2,1.1,0.3,1.7,0.3c0.8,0,1.6-0.2,2.5-0.5c0.8-0.3,1.4-0.6,1.8-1h0.1v2.2c-0.7,0.3-1.4,0.5-2.1,0.7s-1.5,0.3-2.2,0.3
		c-2,0-3.5-0.5-4.7-1.6c-1.1-1.1-1.7-2.6-1.7-4.6c0-2,0.5-3.5,1.6-4.7c1.1-1.2,2.5-1.7,4.2-1.7c1.6,0,2.9,0.5,3.7,1.4
		c0.9,0.9,1.3,2.3,1.3,4V139.3z M702.3,137.7c0-1.1-0.3-1.9-0.8-2.5c-0.5-0.6-1.3-0.9-2.4-0.9c-1.1,0-1.9,0.3-2.6,1
		c-0.6,0.6-1,1.4-1.1,2.4H702.3z"/>
	<path class="st4" d="M717.1,145h-2v-16.7h2V145z"/>
	<path class="st4" d="M723.3,131H721v-2.1h2.3V131z M723.1,145h-2v-12h2V145z"/>
	<path class="st4" d="M733.6,130.3h-0.1c-0.2-0.1-0.5-0.1-0.9-0.2c-0.4-0.1-0.7-0.1-0.9-0.1c-0.9,0-1.5,0.2-1.9,0.6
		c-0.4,0.4-0.6,1.1-0.6,2.1v0.4h3.6v1.7h-3.6V145h-2v-10.3h-1.4V133h1.4v-0.4c0-1.4,0.4-2.5,1.1-3.3c0.7-0.8,1.7-1.1,3.1-1.1
		c0.5,0,0.9,0,1.2,0.1c0.4,0,0.7,0.1,1,0.2V130.3z"/>
	<path class="st4" d="M744.9,139.3h-8.8c0,0.7,0.1,1.4,0.3,1.9c0.2,0.5,0.5,1,0.9,1.3c0.4,0.3,0.8,0.6,1.3,0.8
		c0.5,0.2,1.1,0.3,1.7,0.3c0.8,0,1.6-0.2,2.5-0.5c0.8-0.3,1.4-0.6,1.8-1h0.1v2.2c-0.7,0.3-1.4,0.5-2.1,0.7s-1.5,0.3-2.2,0.3
		c-2,0-3.5-0.5-4.7-1.6c-1.1-1.1-1.7-2.6-1.7-4.6c0-2,0.5-3.5,1.6-4.7c1.1-1.2,2.5-1.7,4.2-1.7c1.6,0,2.9,0.5,3.7,1.4
		c0.9,0.9,1.3,2.3,1.3,4V139.3z M742.9,137.7c0-1.1-0.3-1.9-0.8-2.5c-0.5-0.6-1.3-0.9-2.4-0.9c-1.1,0-1.9,0.3-2.6,1
		c-0.6,0.6-1,1.4-1.1,2.4H742.9z"/>
</g>
</svg>
